<svg version="1.1" xmlns="http://www.w3.org/2000/svg" xmlns:xlink="http://www.w3.org/1999/xlink"
     preserveAspectRatio="xMidYMid meet" viewBox="0 0 640 640" width="40" height="40">
    <defs>
        <path d="M640 320C640 496.61 496.61 640 320 640C143.39 640 0 496.61 0 320C0 143.39 143.39 0 320 0C496.61 0 640 143.39 640 320Z"
              id="a2pmNoJb6f"/>
        <linearGradient id="gradienta3cf4v5Tk7" gradientUnits="userSpaceOnUse" x1="0" y1="0" x2="638.03" y2="640">
            <stop style="stop-color:#0088ff;stop-opacity:1" offset="0%"/>
            <stop style="stop-color:#002041;stop-opacity:1" offset="100%"/>
        </linearGradient>
        <path d="M403.23 95.27C395.48 86.95 379.41 86.95 371.66 94.7C358.75 107.61 368.51 129.14 387.45 129.14C406.39 129.14 415.86 109.05 403.23 95.27Z"
              id="b17m9apQ2"/>
        <path d="M403.23 95.27C395.48 86.95 379.41 86.95 371.66 94.7C358.75 107.61 368.51 129.14 387.45 129.14C406.39 129.14 415.86 109.05 403.23 95.27Z"
              id="a1iyzLTgrr"/>
        <path d="M141.48 295.61C144.06 295.61 183.95 268.92 230.16 236.77C276.37 204.34 316.84 177.93 320 177.93C325.45 177.93 358.75 200.32 474.41 281.83C485.03 289.29 495.94 295.32 498.52 295.32C504.26 295.61 510 286.42 507.71 280.68C507.13 278.67 466.38 249.4 417.59 215.82C344.97 165.88 327.46 154.97 319.43 154.97C311.96 155.26 292.45 167.31 221.84 216.1C173.34 249.69 133.15 278.67 132.29 280.68C130 286.14 135.74 295.61 141.48 295.61Z"
              id="cRu7D3Mfm"/>
        <path d="M141.48 295.61C144.06 295.61 183.95 268.92 230.16 236.77C276.37 204.34 316.84 177.93 320 177.93C325.45 177.93 358.75 200.32 474.41 281.83C485.03 289.29 495.94 295.32 498.52 295.32C504.26 295.61 510 286.42 507.71 280.68C507.13 278.67 466.38 249.4 417.59 215.82C344.97 165.88 327.46 154.97 319.43 154.97C311.96 155.26 292.45 167.31 221.84 216.1C173.34 249.69 133.15 278.67 132.29 280.68C130 286.14 135.74 295.61 141.48 295.61Z"
              id="a5wtgTmtE"/>
        <path d="M424.76 208.93C431.94 214.1 439.11 218.11 440.55 218.11C442.27 218.11 443.42 206.63 443.42 190.85C443.42 189.03 443.42 179.94 443.42 163.58C442.37 163.58 437.1 163.58 427.63 163.58L411.84 163.58L411.84 181.66L411.84 199.74C419.88 205.46 424.19 208.52 424.76 208.93Z"
              id="b1P4iWsmwM"/>
        <path d="M424.76 208.93C431.94 214.1 439.11 218.11 440.55 218.11C442.27 218.11 443.42 206.63 443.42 190.85C443.42 189.03 443.42 179.94 443.42 163.58C442.37 163.58 437.1 163.58 427.63 163.58L411.84 163.58L411.84 181.66L411.84 199.74C419.88 205.46 424.19 208.52 424.76 208.93Z"
              id="a1vg0FpQMF"/>
        <path d="M282.4 223.28C294.74 224.14 297.04 225 297.04 229.88C297.04 234.76 295.03 235.33 273.22 235.33C249.39 235.33 248.82 235.62 232.17 247.39C231.04 248.21 225.4 252.33 215.24 259.73C230.74 260.59 239.35 261.07 241.07 261.17C261.45 262.31 266.9 263.46 266.9 266.91C266.9 270.35 260.3 271.5 230.74 272.65C195.44 274.08 194.57 274.37 179.94 284.13C171.9 289.58 165.01 295.03 165.01 296.18C165.01 297.33 178.79 298.76 196.01 299.05C220.98 299.63 226.72 300.77 226.72 304.22C226.72 307.66 220.98 308.81 196.01 309.38C193.94 309.44 183.61 309.73 165.01 310.25C165.01 311.09 165.01 315.3 165.01 322.87C165.01 330.45 165.01 334.66 165.01 335.5C178.44 336.02 185.91 336.31 187.4 336.36C204.62 336.94 209.5 338.09 209.5 341.53C209.5 344.97 204.62 346.12 187.4 346.7C185.91 346.75 178.44 347.04 165.01 347.56C165.01 348.4 165.01 352.61 165.01 360.19C165.01 367.94 165.01 372.24 165.01 373.1C178.96 373.1 186.71 373.1 188.26 373.1C208.64 373.1 211.22 373.68 210.36 377.98C209.5 382.29 205.77 383.15 187.11 384.01C185.64 384.07 178.27 384.35 165.01 384.87C165.01 385.71 165.01 389.92 165.01 397.5C165.01 405.25 165.01 409.55 165.01 410.41C171.9 410.41 175.73 410.41 176.49 410.41C189.98 410.41 206.34 417.88 216.39 428.78C221.27 433.66 226.43 436.24 232.46 436.24C237.63 436.24 246.52 439.4 252.26 443.42C252.95 443.88 256.4 446.18 262.6 450.31C262.6 407.6 262.6 383.87 262.6 379.13C262.6 339.81 263.46 305.65 264.32 303.07C265.75 299.05 273.5 298.48 320 298.48C366.5 298.48 374.25 299.05 375.68 303.07C376.54 305.65 377.4 337.8 377.4 374.82C377.4 379.3 377.4 401.69 377.4 441.99C381.71 441.99 384.1 441.99 384.58 441.99C389.17 441.99 396.06 437.39 404.38 429.36C420.46 413 442.56 405.53 462.07 409.84C462.93 410.03 467.24 410.99 474.99 412.71C474.99 411.77 474.99 407.09 474.99 398.65C474.99 390.38 474.99 385.79 474.99 384.87C461.73 384.35 454.36 384.07 452.89 384.01C435.38 383.43 430.5 382.29 430.5 378.84C430.5 375.4 435.38 374.25 452.89 373.68C454.36 373.62 461.73 373.33 474.99 372.81C474.99 371.97 474.99 367.76 474.99 360.19C474.99 352.61 474.99 348.4 474.99 347.56C461.73 347.04 454.36 346.75 452.89 346.7C435.38 346.12 430.5 344.97 430.5 341.53C430.5 338.09 435.38 336.94 452.89 336.36C454.36 336.31 461.73 336.02 474.99 335.5C474.99 334.66 474.99 330.45 474.99 322.87C474.99 315.3 474.99 311.09 474.99 310.25C456.56 309.73 446.32 309.44 444.28 309.38C419.02 308.81 413.28 307.66 413.28 304.22C413.28 300.77 419.02 299.63 444.28 299.05C461.21 298.76 474.99 297.33 474.99 296.18C474.99 295.03 468.1 289.58 460.06 284.13C445.43 274.37 444.56 274.08 409.26 272.65C379.7 271.5 373.1 270.35 373.1 266.91C373.1 263.46 378.55 262.31 398.93 261.17C400.65 261.07 409.26 260.59 424.76 259.73C414.6 252.33 408.96 248.21 407.83 247.39C391.18 235.62 390.61 235.33 366.78 235.33C345.26 235.33 342.67 234.76 343.54 230.17C344.11 226.72 348.13 225 358.17 223.85C359.09 223.76 363.68 223.28 371.95 222.42C358 212.43 350.25 206.88 348.7 205.77C336.07 196.87 322.58 189.41 319.14 189.7C315.69 189.7 302.78 197.16 290.44 206.06C287.45 208.24 279.99 213.69 268.05 222.42C276.66 222.94 281.44 223.22 282.4 223.28Z"
              id="g1NnA0G2wd"/>
        <path d="M282.4 223.28C294.74 224.14 297.04 225 297.04 229.88C297.04 234.76 295.03 235.33 273.22 235.33C249.39 235.33 248.82 235.62 232.17 247.39C231.04 248.21 225.4 252.33 215.24 259.73C230.74 260.59 239.35 261.07 241.07 261.17C261.45 262.31 266.9 263.46 266.9 266.91C266.9 270.35 260.3 271.5 230.74 272.65C195.44 274.08 194.57 274.37 179.94 284.13C171.9 289.58 165.01 295.03 165.01 296.18C165.01 297.33 178.79 298.76 196.01 299.05C220.98 299.63 226.72 300.77 226.72 304.22C226.72 307.66 220.98 308.81 196.01 309.38C193.94 309.44 183.61 309.73 165.01 310.25C165.01 311.09 165.01 315.3 165.01 322.87C165.01 330.45 165.01 334.66 165.01 335.5C178.44 336.02 185.91 336.31 187.4 336.36C204.62 336.94 209.5 338.09 209.5 341.53C209.5 344.97 204.62 346.12 187.4 346.7C185.91 346.75 178.44 347.04 165.01 347.56C165.01 348.4 165.01 352.61 165.01 360.19C165.01 367.94 165.01 372.24 165.01 373.1C178.96 373.1 186.71 373.1 188.26 373.1C208.64 373.1 211.22 373.68 210.36 377.98C209.5 382.29 205.77 383.15 187.11 384.01C185.64 384.07 178.27 384.35 165.01 384.87C165.01 385.71 165.01 389.92 165.01 397.5C165.01 405.25 165.01 409.55 165.01 410.41C171.9 410.41 175.73 410.41 176.49 410.41C189.98 410.41 206.34 417.88 216.39 428.78C221.27 433.66 226.43 436.24 232.46 436.24C237.63 436.24 246.52 439.4 252.26 443.42C252.95 443.88 256.4 446.18 262.6 450.31C262.6 407.6 262.6 383.87 262.6 379.13C262.6 339.81 263.46 305.65 264.32 303.07C265.75 299.05 273.5 298.48 320 298.48C366.5 298.48 374.25 299.05 375.68 303.07C376.54 305.65 377.4 337.8 377.4 374.82C377.4 379.3 377.4 401.69 377.4 441.99C381.71 441.99 384.1 441.99 384.58 441.99C389.17 441.99 396.06 437.39 404.38 429.36C420.46 413 442.56 405.53 462.07 409.84C462.93 410.03 467.24 410.99 474.99 412.71C474.99 411.77 474.99 407.09 474.99 398.65C474.99 390.38 474.99 385.79 474.99 384.87C461.73 384.35 454.36 384.07 452.89 384.01C435.38 383.43 430.5 382.29 430.5 378.84C430.5 375.4 435.38 374.25 452.89 373.68C454.36 373.62 461.73 373.33 474.99 372.81C474.99 371.97 474.99 367.76 474.99 360.19C474.99 352.61 474.99 348.4 474.99 347.56C461.73 347.04 454.36 346.75 452.89 346.7C435.38 346.12 430.5 344.97 430.5 341.53C430.5 338.09 435.38 336.94 452.89 336.36C454.36 336.31 461.73 336.02 474.99 335.5C474.99 334.66 474.99 330.45 474.99 322.87C474.99 315.3 474.99 311.09 474.99 310.25C456.56 309.73 446.32 309.44 444.28 309.38C419.02 308.81 413.28 307.66 413.28 304.22C413.28 300.77 419.02 299.63 444.28 299.05C461.21 298.76 474.99 297.33 474.99 296.18C474.99 295.03 468.1 289.58 460.06 284.13C445.43 274.37 444.56 274.08 409.26 272.65C379.7 271.5 373.1 270.35 373.1 266.91C373.1 263.46 378.55 262.31 398.93 261.17C400.65 261.07 409.26 260.59 424.76 259.73C414.6 252.33 408.96 248.21 407.83 247.39C391.18 235.62 390.61 235.33 366.78 235.33C345.26 235.33 342.67 234.76 343.54 230.17C344.11 226.72 348.13 225 358.17 223.85C359.09 223.76 363.68 223.28 371.95 222.42C358 212.43 350.25 206.88 348.7 205.77C336.07 196.87 322.58 189.41 319.14 189.7C315.69 189.7 302.78 197.16 290.44 206.06C287.45 208.24 279.99 213.69 268.05 222.42C276.66 222.94 281.44 223.22 282.4 223.28Z"
              id="dmJBNsUK"/>
        <path d="M382 453.47C371.66 453.47 367.07 455.19 358.75 462.36C349.56 470.69 348.13 470.97 342.1 467.24C326.03 456.91 309.67 458.35 296.46 471.83C295.85 472.43 292.79 475.39 287.28 480.73C297.61 481.77 303.35 482.34 304.5 482.45C327.18 485.04 465.52 485.61 490.2 483.03C508.57 481.31 509.43 481.02 509.43 473.84C509.14 453.75 487.9 427.92 467.24 422.18C452.89 418.16 444.56 418.45 430.5 423.33C423.9 425.63 413.85 432.8 406.97 440.26C396.35 452.32 394.05 453.47 382 453.47Z"
              id="bXmjxYxBZ"/>
        <path d="M382 453.47C371.66 453.47 367.07 455.19 358.75 462.36C349.56 470.69 348.13 470.97 342.1 467.24C326.03 456.91 309.67 458.35 296.46 471.83C295.85 472.43 292.79 475.39 287.28 480.73C297.61 481.77 303.35 482.34 304.5 482.45C327.18 485.04 465.52 485.61 490.2 483.03C508.57 481.31 509.43 481.02 509.43 473.84C509.14 453.75 487.9 427.92 467.24 422.18C452.89 418.16 444.56 418.45 430.5 423.33C423.9 425.63 413.85 432.8 406.97 440.26C396.35 452.32 394.05 453.47 382 453.47Z"
              id="aw0EV2hOb"/>
        <path d="M132.01 480.73C136.81 480.79 160.83 481.07 204.05 481.59C247.1 481.94 271.02 482.13 275.8 482.17C280.62 475.11 283.3 471.18 283.84 470.4C289.86 460.93 290.72 457.77 287.85 456.05C282.4 452.32 276.66 452.89 267.19 457.77C259.73 461.79 258.58 461.5 250.54 454.9C244.8 450.02 238.49 447.73 231.03 447.73C222.13 447.73 218.68 446 214.09 439.4C201.46 421.89 172.76 416.73 152.67 428.21C139.47 435.96 129.71 454.33 131.14 469.83C131.2 470.55 131.49 474.19 132.01 480.73Z"
              id="a3pFCclapQ"/>
        <path d="M132.01 480.73C136.81 480.79 160.83 481.07 204.05 481.59C247.1 481.94 271.02 482.13 275.8 482.17C280.62 475.11 283.3 471.18 283.84 470.4C289.86 460.93 290.72 457.77 287.85 456.05C282.4 452.32 276.66 452.89 267.19 457.77C259.73 461.79 258.58 461.5 250.54 454.9C244.8 450.02 238.49 447.73 231.03 447.73C222.13 447.73 218.68 446 214.09 439.4C201.46 421.89 172.76 416.73 152.67 428.21C139.47 435.96 129.71 454.33 131.14 469.83C131.2 470.55 131.49 474.19 132.01 480.73Z"
              id="g154flExyc"/>
    </defs>
    <g>
        <g>
            <use xlink:href="#a2pmNoJb6f" opacity="1" fill="url(#gradienta3cf4v5Tk7)"/>
        </g>
        <g>
            <use xlink:href="#b17m9apQ2" opacity="1" fill="#ffffff" fill-opacity="1"/>
            <g>
                <use xlink:href="#b17m9apQ2" opacity="1" fill-opacity="0" stroke="#000000" stroke-width="1"
                     stroke-opacity="0"/>
            </g>
        </g>
        <g>
            <use xlink:href="#a1iyzLTgrr" opacity="1" fill="#000000" fill-opacity="0"/>
            <g>
                <use xlink:href="#a1iyzLTgrr" opacity="1" fill-opacity="0" stroke="#000000" stroke-width="1"
                     stroke-opacity="0"/>
            </g>
        </g>
        <g>
            <use xlink:href="#cRu7D3Mfm" opacity="1" fill="#ffffff" fill-opacity="1"/>
            <g>
                <use xlink:href="#cRu7D3Mfm" opacity="1" fill-opacity="0" stroke="#000000" stroke-width="1"
                     stroke-opacity="0"/>
            </g>
        </g>
        <g>
            <use xlink:href="#a5wtgTmtE" opacity="1" fill="#000000" fill-opacity="0"/>
            <g>
                <use xlink:href="#a5wtgTmtE" opacity="1" fill-opacity="0" stroke="#000000" stroke-width="1"
                     stroke-opacity="0"/>
            </g>
        </g>
        <g>
            <use xlink:href="#b1P4iWsmwM" opacity="1" fill="#ffffff" fill-opacity="1"/>
            <g>
                <use xlink:href="#b1P4iWsmwM" opacity="1" fill-opacity="0" stroke="#000000" stroke-width="1"
                     stroke-opacity="0"/>
            </g>
        </g>
        <g>
            <use xlink:href="#a1vg0FpQMF" opacity="1" fill="#000000" fill-opacity="0"/>
            <g>
                <use xlink:href="#a1vg0FpQMF" opacity="1" fill-opacity="0" stroke="#000000" stroke-width="1"
                     stroke-opacity="0"/>
            </g>
        </g>
        <g>
            <use xlink:href="#g1NnA0G2wd" opacity="1" fill="#ffffff" fill-opacity="1"/>
            <g>
                <use xlink:href="#g1NnA0G2wd" opacity="1" fill-opacity="0" stroke="#000000" stroke-width="1"
                     stroke-opacity="0"/>
            </g>
        </g>
        <g>
            <use xlink:href="#dmJBNsUK" opacity="1" fill="#000000" fill-opacity="0"/>
            <g>
                <use xlink:href="#dmJBNsUK" opacity="1" fill-opacity="0" stroke="#000000" stroke-width="1"
                     stroke-opacity="0"/>
            </g>
        </g>
        <g>
            <use xlink:href="#bXmjxYxBZ" opacity="1" fill="#ffffff" fill-opacity="1"/>
            <g>
                <use xlink:href="#bXmjxYxBZ" opacity="1" fill-opacity="0" stroke="#000000" stroke-width="1"
                     stroke-opacity="0"/>
            </g>
        </g>
        <g>
            <use xlink:href="#aw0EV2hOb" opacity="1" fill="#000000" fill-opacity="0"/>
            <g>
                <use xlink:href="#aw0EV2hOb" opacity="1" fill-opacity="0" stroke="#000000" stroke-width="1"
                     stroke-opacity="0"/>
            </g>
        </g>
        <g>
            <use xlink:href="#a3pFCclapQ" opacity="1" fill="#ffffff" fill-opacity="1"/>
            <g>
                <use xlink:href="#a3pFCclapQ" opacity="1" fill-opacity="0" stroke="#000000" stroke-width="1"
                     stroke-opacity="0"/>
            </g>
        </g>
        <g>
            <use xlink:href="#g154flExyc" opacity="1" fill="#000000" fill-opacity="0"/>
            <g>
                <use xlink:href="#g154flExyc" opacity="1" fill-opacity="0" stroke="#000000" stroke-width="1"
                     stroke-opacity="0"/>
            </g>
        </g>
    </g>
</svg>
